<?xml version="1.0" encoding="UTF-8"?>
<svg width="2162px" height="2229px" viewBox="0 0 2162 2229" version="1.1" xmlns="http://www.w3.org/2000/svg" xmlns:xlink="http://www.w3.org/1999/xlink">
    <title>Amanda-final-transparent</title>
    <g id="Page-1" stroke="none" stroke-width="1" fill="none" fill-rule="evenodd">
        <path d="M663.551398,1638.33187 C632.679511,1602.92295 609.600175,1576.54134 569.033549,1553.47042 C513.490142,1515.70415 531.502309,1484.95102 513.490142,1464.70938 C475.616447,1424.78291 484.125142,1398.71075 475.616447,1366.26275 C450.885941,1324.18956 471.235165,1324.18956 461.849439,1271.5426 C450.601482,1202.76479 471.235165,1226.53251 471.235165,1202.76479 C471.235165,1178.99706 461.849439,1148.06367 487.733786,1133.47231 C510.879033,1032.63976 517.026123,1066.06225 531.502309,1049.12393 C548.448851,1017.69896 557.384607,973.615656 603.144343,963.028343 C636.523176,900.227917 642.840247,906.905873 663.551398,900.227917 C678.127704,883.688028 692.270197,860.753643 709.240604,849.888993 C725.947756,818.772499 732.538488,806.3288 754.157839,806.3288 C772.464461,791.881143 783.300539,767.575575 806.25846,767.575575 C838.208838,730.342525 841.004083,717.04265 874.545361,717.04265 C899.720579,684.48612 921.058471,663.595257 934.660467,663.595257 C975.886205,628.85195 987.226404,586.901366 1011.48867,592.326758 C1034.04766,574.303364 1029.5957,525.339638 1064.93227,501.232178 C1101.50259,396.003847 1095.16124,408.109577 1123.08613,506.799705 C1150.63421,501.232178 1140.25493,541.373143 1157.15942,574.303364 C1196.75472,582.737855 1190.90597,611.16136 1206.14187,628.85195 C1221.9232,628.85195 1221.9232,628.85195 1244.62015,673.177227 C1280.90602,663.595257 1287.40001,727.621812 1334.47103,747.32309 C1364.12067,739.356605 1374.96134,771.406283 1433.59804,806.3288 C1459.70236,806.3288 1453.96386,784.48269 1504.20978,860.753643 C1535.0493,873.258044 1527.38625,836.743252 1573.3956,934.389573 C1589.53797,946.433231 1589.53797,918.671866 1626.99199,983.984568 C1660.22859,1005.98774 1660.22859,1028.73278 1687.92362,1085.26437 C1693.77588,1095.08714 1703.31201,1102.08481 1708.39929,1106.93816 C1716.6059,1114.76739 1720.01415,1122.11901 1728.46519,1164.95669 C1750.56513,1164.95669 1767.71195,1186.63421 1761.42007,1279.21885 C1797.29272,1271.5426 1781.23467,1366.26275 1770.10608,1397.77382 C1775.89586,1423.15356 1787.83992,1444.51503 1687.92362,1535.97744 C1695.19276,1572.17329 1656.81855,1591.3303 1600.36038,1621.91356 C1582.51261,1641.91031 1573.3956,1612.71293 1527.33768,1664.86949 C1504.7301,1679.57856 1487.78184,1704.06551 1463.40032,1717.09192 C1419.94591,1732.42985 1410.52218,1732.42985 1399.26523,1755.04192 C1385.08345,1761.75046 1356.84373,1763.15401 1334.47103,1763.15401 C1218.86274,1755.70406 1184.25764,1773.87653 1117.72828,1779.40323 C1089.50858,1745.26928 1094.88628,1745.26928 1068.91994,1779.40323 C989.264837,1751.69655 912.504483,1765.69788 840.164582,1745.26928 C724.063692,1731.76647 756.340572,1704.62001 735.625908,1696.14956 C700.618403,1679.37487 683.399311,1657.36853 663.551398,1638.33187 Z" id="Path" stroke="#979797" fill="#FFFFFF"></path>
        <path d="M1053.97784,384.659775 C1253.78773,212.605772 1305.52194,128.604568 1078.04675,2.40323301 C1303.66008,214.245268 873.211944,374.311083 541.238379,446.725769 C467.318628,435.424173 541.238379,310.642629 654.484868,310.642629 C548.877363,256.797646 257.317486,524.18383 172.189059,729.295154 C89.545308,908.054284 141.429201,1186.14859 102.468456,1186.14859 C69.3243353,1186.14859 19.8228682,998.494988 59.8835736,930.299204 C37.1333096,944.422078 -125.17535,1316.28913 216.264446,1779.90191 C485.494751,2134.94967 843.834232,2235.95716 1178.4356,2227.97127 C1058.77704,2083.44172 1066.97243,2023.17091 1066.97243,1890.55261 C576.381917,1836.21674 367.113891,1580.50813 358.461629,1217.08478 C366.475246,1078.77348 439.602768,961.332276 594.556153,789.365567 C1002.69012,432.76435 922.342033,515.502763 1053.97784,384.659775 Z" id="Path-2" stroke="#979797" fill="#FFFFFF"></path>
        <text id="ABC" font-family="BACKCOUNTRY-Regular, BACKCOUNTRY" font-size="360" font-weight="normal" fill="#000000">
            <tspan x="789.493735" y="1266.40323">ABC</tspan>
        </text>
        <text id="Forestry" font-family="BACKCOUNTRY-Regular, BACKCOUNTRY" font-size="200" font-weight="normal" fill="#000000">
            <tspan x="725.493735" y="1427.40323">F</tspan>
            <tspan x="816.693735" y="1427.40323" font-family="LucidaGrande, Lucida Grande">orestry</tspan>
        </text>
        <path d="M1194.7878,452.505443 C1401.95919,749.47874 1572.39647,689.206027 1748.1373,946.455608 C1903.22009,1173.46593 1954.71787,1428.46 1732.09132,1657.90484 C1517.39488,1834.49688 1361.41003,1859.31654 1113.71796,1897.02414 C1108.79606,2114.27098 1184.41409,2255.01184 1389.07332,2194.1658 C1554.45819,2151.06644 1685.59702,2088.03777 1857.09442,1947.79685 C2043.33921,1795.49634 2228.6726,1551.1883 2135.72172,1158.10224 C1961.43105,754.170154 1651.30742,730.793515 1196.52188,425.337318 C1158.3226,403.322781 1158.3226,385.38087 1194.7878,452.505443 Z" id="Path-3" stroke="#979797" fill="#FFFFFF"></path>
    </g>
</svg>